<svg width="16" height="12" viewBox="0 0 16 12" fill="none" xmlns="http://www.w3.org/2000/svg">
<path d="M10.025 11.6833C9.86669 11.6833 9.70835 11.625 9.58335 11.5C9.34169 11.2583 9.34169 10.8583 9.58335 10.6166L14.2 5.99998L9.58335 1.38331C9.34169 1.14164 9.34169 0.741642 9.58335 0.499976C9.82502 0.258309 10.225 0.258309 10.4667 0.499976L15.525 5.55831C15.7667 5.79998 15.7667 6.19998 15.525 6.44164L10.4667 11.5C10.3417 11.625 10.1834 11.6833 10.025 11.6833Z" fill="#514EF3"/>
<path d="M14.9417 6.62498H0.916687C0.57502 6.62498 0.291687 6.34164 0.291687 5.99998C0.291687 5.65831 0.57502 5.37498 0.916687 5.37498H14.9417C15.2834 5.37498 15.5667 5.65831 15.5667 5.99998C15.5667 6.34164 15.2834 6.62498 14.9417 6.62498Z" fill="#514EF3"/>
</svg>
