<svg width="80" height="80" viewBox="0 0 80 80" fill="none" xmlns="http://www.w3.org/2000/svg">
<rect width="80" height="80" rx="40" fill="url(#paint0_linear_46_702)"/>
<path d="M52.12 33.3067C50.9867 32.0533 49.0933 31.4267 46.3467 31.4267H46.0267V31.3733C46.0267 29.1333 46.0267 26.36 41.0133 26.36H38.9867C33.9733 26.36 33.9733 29.1467 33.9733 31.3733V31.44H33.6533C30.8933 31.44 29.0133 32.0667 27.88 33.32C26.56 34.7867 26.6 36.76 26.7333 38.1067L26.7467 38.2L26.8499 39.2844C26.869 39.4841 26.9765 39.6644 27.1444 39.7743C27.4641 39.9835 27.9992 40.3284 28.32 40.5067C28.5067 40.6267 28.7067 40.7333 28.9067 40.84C31.1867 42.0933 33.6933 42.9333 36.24 43.3467C36.36 44.6 36.9067 46.0667 39.8267 46.0667C42.7467 46.0667 43.32 44.6133 43.4133 43.32C46.1333 42.88 48.76 41.9333 51.1333 40.5467C51.2133 40.5067 51.2667 40.4667 51.3333 40.4267C51.8623 40.1277 52.4111 39.7593 52.9113 39.3984C53.062 39.2897 53.1583 39.1217 53.1789 38.937L53.2 38.7467L53.2667 38.12C53.28 38.04 53.28 37.9733 53.2933 37.88C53.4 36.5333 53.3733 34.6933 52.12 33.3067ZM41.4533 42.44C41.4533 43.8533 41.4533 44.0667 39.8133 44.0667C38.1733 44.0667 38.1733 43.8133 38.1733 42.4533V40.7733H41.4533V42.44ZM35.88 31.3733C35.88 29.1067 35.88 28.2667 38.9867 28.2667H41.0133C44.12 28.2667 44.12 29.12 44.12 31.3733V31.44H35.88V31.3733Z" fill="#FE8084"/>
<path d="M51.8313 42.3122C52.3028 42.0879 52.8458 42.4616 52.7986 42.9816L52.32 48.2533C52.04 50.92 50.9467 53.64 45.08 53.64H34.92C29.0533 53.64 27.96 50.92 27.68 48.2667L27.2257 43.2696C27.179 42.7556 27.7096 42.3823 28.1798 42.595C29.699 43.2824 32.5032 44.5019 34.2354 44.9555C34.4545 45.0129 34.6317 45.1697 34.7276 45.3749C35.5369 47.1057 37.2922 48.0267 39.8267 48.0267C42.3362 48.0267 44.1136 47.0702 44.9255 45.3352C45.0216 45.1299 45.199 44.9731 45.4182 44.9154C47.2576 44.4314 50.2424 43.0683 51.8313 42.3122Z" fill="#FE8084"/>
<defs>
<linearGradient id="paint0_linear_46_702" x1="40" y1="0" x2="40" y2="80" gradientUnits="userSpaceOnUse">
<stop stop-color="#FE8084" stop-opacity="0.5"/>
<stop offset="1" stop-color="white" stop-opacity="0"/>
</linearGradient>
</defs>
</svg>
