<svg width="18" height="18" viewBox="0 0 18 18" fill="none" xmlns="http://www.w3.org/2000/svg">
<path d="M3.61667 15.2666C3.10833 15.2666 2.63333 15.0916 2.29167 14.7666C1.85833 14.3583 1.65 13.7416 1.725 13.075L2.03333 10.375C2.09167 9.86663 2.4 9.19163 2.75833 8.82496L9.6 1.58329C11.3083 -0.225041 13.0917 -0.27504 14.9 1.43329C16.7083 3.14163 16.7583 4.92496 15.05 6.73329L8.20833 13.975C7.85833 14.35 7.20833 14.7 6.7 14.7833L4.01667 15.2416C3.875 15.25 3.75 15.2666 3.61667 15.2666ZM12.275 1.42496C11.6333 1.42496 11.075 1.82496 10.5083 2.42496L3.66667 9.67496C3.5 9.84996 3.30833 10.2666 3.275 10.5083L2.96667 13.2083C2.93333 13.4833 3 13.7083 3.15 13.85C3.3 13.9916 3.525 14.0416 3.8 14L6.48333 13.5416C6.725 13.5 7.125 13.2833 7.29167 13.1083L14.1333 5.86663C15.1667 4.76663 15.5417 3.74996 14.0333 2.33329C13.3667 1.69163 12.7917 1.42496 12.275 1.42496Z" fill="white"/>
<path d="M13.45 8.12496C13.4333 8.12496 13.4083 8.12496 13.3917 8.12496C10.7917 7.86663 8.7 5.89163 8.3 3.30829C8.25 2.96663 8.48333 2.64996 8.825 2.59163C9.16667 2.54163 9.48333 2.77496 9.54167 3.11663C9.85833 5.13329 11.4917 6.68329 13.525 6.88329C13.8667 6.91663 14.1167 7.22496 14.0833 7.56663C14.0417 7.88329 13.7667 8.12496 13.45 8.12496Z" fill="white"/>
<path d="M16.5 17.9583H1.5C1.15833 17.9583 0.875 17.675 0.875 17.3333C0.875 16.9916 1.15833 16.7083 1.5 16.7083H16.5C16.8417 16.7083 17.125 16.9916 17.125 17.3333C17.125 17.675 16.8417 17.9583 16.5 17.9583Z" fill="white"/>
</svg>
