<svg width="44" height="45" viewBox="0 0 44 45" fill="none" xmlns="http://www.w3.org/2000/svg">
<path d="M32.02 27.82L28.89 20.5C28.32 19.16 27.47 18.4 26.5 18.35C25.54 18.3 24.61 18.97 23.9 20.25L22 23.66C21.6 24.38 21.03 24.81 20.41 24.86C19.78 24.92 19.15 24.59 18.64 23.94L18.42 23.66C17.71 22.77 16.83 22.34 15.93 22.43C15.03 22.52 14.26 23.14 13.75 24.15L12.02 27.6C11.4 28.85 11.46 30.3 12.19 31.48C12.92 32.66 14.19 33.37 15.58 33.37H28.34C29.68 33.37 30.93 32.7 31.67 31.58C32.43 30.46 32.55 29.05 32.02 27.82Z" fill="#7E92A2"/>
<path d="M16.97 19.3801C18.8367 19.3801 20.35 17.8668 20.35 16.0001C20.35 14.1334 18.8367 12.6201 16.97 12.6201C15.1032 12.6201 13.59 14.1334 13.59 16.0001C13.59 17.8668 15.1032 19.3801 16.97 19.3801Z" fill="#7E92A2"/>
</svg>
