<svg width="33" height="33" viewBox="0 0 33 33" fill="none" xmlns="http://www.w3.org/2000/svg">
<path d="M24.5 10.8889C24.5 8.72295 23.6396 6.64573 22.108 5.11419C20.5765 3.58264 18.4992 2.72223 16.3333 2.72223C14.1674 2.72223 12.0901 3.58264 10.5586 5.11419C9.02702 6.64573 8.1666 8.72295 8.1666 10.8889C8.1666 20.4166 4.08325 23.1389 4.08325 23.1389H28.5834C28.5834 23.1389 24.5 20.4166 24.5 10.8889Z" stroke="black" stroke-width="2" stroke-linecap="round" stroke-linejoin="round"/>
<path d="M18.6882 28.5834C18.4489 28.9959 18.1055 29.3383 17.6922 29.5764C17.2789 29.8144 16.8104 29.9397 16.3335 29.9397C15.8566 29.9397 15.388 29.8144 14.9748 29.5764C14.5615 29.3383 14.2181 28.9959 13.9788 28.5834" stroke="black" stroke-width="2" stroke-linecap="round" stroke-linejoin="round"/>
<ellipse cx="23.3334" cy="5.83337" rx="4.66669" ry="4.66668" fill="#FD633D"/>
</svg>
