<svg width="20" height="20" viewBox="0 0 20 20" fill="none" xmlns="http://www.w3.org/2000/svg">
<path d="M9.58329 18.125C4.87496 18.125 1.04163 14.2917 1.04163 9.58334C1.04163 4.875 4.87496 1.04167 9.58329 1.04167C14.2916 1.04167 18.125 4.875 18.125 9.58334C18.125 14.2917 14.2916 18.125 9.58329 18.125ZM9.58329 2.29167C5.55829 2.29167 2.29163 5.56667 2.29163 9.58334C2.29163 13.6 5.55829 16.875 9.58329 16.875C13.6083 16.875 16.875 13.6 16.875 9.58334C16.875 5.56667 13.6083 2.29167 9.58329 2.29167Z" fill="#7E92A2"/>
<path d="M18.3333 18.9583C18.175 18.9583 18.0166 18.9 17.8916 18.775L16.225 17.1083C15.9833 16.8667 15.9833 16.4667 16.225 16.225C16.4666 15.9833 16.8666 15.9833 17.1083 16.225L18.775 17.8917C19.0166 18.1333 19.0166 18.5333 18.775 18.775C18.65 18.9 18.4916 18.9583 18.3333 18.9583Z" fill="#7E92A2"/>
</svg>
