<svg width="30" height="31" viewBox="0 0 30 31" fill="none" xmlns="http://www.w3.org/2000/svg">
<path d="M19.19 5.5H10.81C7.17 5.5 5 7.67 5 11.31V19.68C5 23.33 7.17 25.5 10.81 25.5H19.18C22.82 25.5 24.99 23.33 24.99 19.69V11.31C25 7.67 22.83 5.5 19.19 5.5ZM19.78 13.2L14.11 18.87C13.97 19.01 13.78 19.09 13.58 19.09C13.38 19.09 13.19 19.01 13.05 18.87L10.22 16.04C9.93 15.75 9.93 15.27 10.22 14.98C10.51 14.69 10.99 14.69 11.28 14.98L13.58 17.28L18.72 12.14C19.01 11.85 19.49 11.85 19.78 12.14C20.07 12.43 20.07 12.9 19.78 13.2Z" fill="#7E92A2"/>
</svg>
