<svg width="18" height="18" viewBox="0 0 18 18" fill="none" xmlns="http://www.w3.org/2000/svg">
<path d="M16.5001 4.60839C16.4834 4.60839 16.4584 4.60839 16.4334 4.60839C12.0251 4.16673 7.62505 4.00006 3.26672 4.44173L1.56672 4.60839C1.21672 4.64173 0.908385 4.39173 0.875052 4.04173C0.841718 3.69173 1.09172 3.39173 1.43339 3.35839L3.13339 3.19173C7.56672 2.74173 12.0584 2.91673 16.5584 3.35839C16.9001 3.39173 17.1501 3.70006 17.1167 4.04173C17.0917 4.36673 16.8167 4.60839 16.5001 4.60839Z" fill="#7E92A2"/>
<path d="M6.08338 3.7665C6.05005 3.7665 6.01672 3.7665 5.97505 3.75817C5.64172 3.69984 5.40838 3.37484 5.46672 3.0415L5.65005 1.94984C5.78338 1.14984 5.96672 0.0415039 7.90838 0.0415039H10.0917C12.0417 0.0415039 12.225 1.1915 12.35 1.95817L12.5334 3.0415C12.5917 3.38317 12.3584 3.70817 12.025 3.75817C11.6834 3.8165 11.3584 3.58317 11.3084 3.24984L11.125 2.1665C11.0084 1.4415 10.9834 1.29984 10.1 1.29984H7.91672C7.03338 1.29984 7.01672 1.4165 6.89172 2.15817L6.70005 3.2415C6.65005 3.54984 6.38338 3.7665 6.08338 3.7665Z" fill="#7E92A2"/>
<path d="M11.675 17.9582H6.325C3.41666 17.9582 3.3 16.3498 3.20833 15.0498L2.66666 6.65815C2.64166 6.31649 2.90833 6.01649 3.25 5.99149C3.6 5.97482 3.89166 6.23315 3.91666 6.57482L4.45833 14.9665C4.55 16.2332 4.58333 16.7082 6.325 16.7082H11.675C13.425 16.7082 13.4583 16.2332 13.5417 14.9665L14.0833 6.57482C14.1083 6.23315 14.4083 5.97482 14.75 5.99149C15.0917 6.01649 15.3583 6.30815 15.3333 6.65815L14.7917 15.0498C14.7 16.3498 14.5833 17.9582 11.675 17.9582Z" fill="#7E92A2"/>
<path d="M10.3834 13.375H7.6084C7.26673 13.375 6.9834 13.0917 6.9834 12.75C6.9834 12.4083 7.26673 12.125 7.6084 12.125H10.3834C10.7251 12.125 11.0084 12.4083 11.0084 12.75C11.0084 13.0917 10.7251 13.375 10.3834 13.375Z" fill="#7E92A2"/>
<path d="M11.0834 10.0415H6.91675C6.57508 10.0415 6.29175 9.75817 6.29175 9.4165C6.29175 9.07484 6.57508 8.7915 6.91675 8.7915H11.0834C11.4251 8.7915 11.7084 9.07484 11.7084 9.4165C11.7084 9.75817 11.4251 10.0415 11.0834 10.0415Z" fill="#7E92A2"/>
</svg>
